FILE "Adventures of Batman & Robin, The (1995)(Sega)(EU)(en).img" BINARY
  TRACK 01 MODE1/2352
    INDEX 01 00:00:00
  TRACK 02 AUDIO
    PREGAP 00:02:00
    INDEX 01 15:17:58
  TRACK 03 AUDIO
    INDEX 01 18:13:39
  TRACK 04 AUDIO
    INDEX 01 20:47:65
  TRACK 05 AUDIO
    INDEX 01 23:22:70
  TRACK 06 AUDIO
    INDEX 01 26:05:36
  TRACK 07 AUDIO
    INDEX 01 28:44:29
